<?xml version="1.0" encoding="UTF-8" standalone="no"?>
<svg
   xmlns:dc="http://purl.org/dc/elements/1.1/"
   xmlns:cc="http://creativecommons.org/ns#"
   xmlns:rdf="http://www.w3.org/1999/02/22-rdf-syntax-ns#"
   xmlns:svg="http://www.w3.org/2000/svg"
   xmlns="http://www.w3.org/2000/svg"
   xmlns:sodipodi="http://sodipodi.sourceforge.net/DTD/sodipodi-0.dtd"
   xmlns:inkscape="http://www.inkscape.org/namespaces/inkscape"
   enable-background="new 0 0 128 128"
   height="128px"
   id="Layer_1"
   version="1.1"
   viewBox="0 0 128 128"
   width="128px"
   xml:space="preserve"
   inkscape:version="0.48.3.1 r9886"
   sodipodi:docname="1460482913_Lock.svg"><metadata
     id="metadata9"><rdf:RDF><cc:Work
         rdf:about=""><dc:format>image/svg+xml</dc:format><dc:type
           rdf:resource="http://purl.org/dc/dcmitype/StillImage" /><dc:title></dc:title></cc:Work></rdf:RDF></metadata><defs
     id="defs7" /><sodipodi:namedview
     pagecolor="#ffffff"
     bordercolor="#666666"
     borderopacity="1"
     objecttolerance="10"
     gridtolerance="10"
     guidetolerance="10"
     inkscape:pageopacity="0"
     inkscape:pageshadow="2"
     inkscape:window-width="1440"
     inkscape:window-height="813"
     id="namedview5"
     showgrid="false"
     inkscape:zoom="0.53897357"
     inkscape:cx="85.073798"
     inkscape:cy="-61.831791"
     inkscape:window-x="0"
     inkscape:window-y="27"
     inkscape:window-maximized="1"
     inkscape:current-layer="Layer_1" /><path
     sodipodi:type="arc"
     style="fill:#630000;fill-opacity:1;fill-rule:evenodd;stroke:#630000;stroke-width:1px;stroke-linecap:butt;stroke-linejoin:miter;stroke-opacity:1"
     id="path2986"
     sodipodi:cx="-384"
     sodipodi:cy="176.81355"
     sodipodi:rx="147.52542"
     sodipodi:ry="142.1017"
     d="m -236.47458,176.81355 a 147.52542,142.1017 0 1 1 -295.05084,0 147.52542,142.1017 0 1 1 295.05084,0 z"
     transform="matrix(1.6887913,0,0,1.7532488,712.49586,-245.99815)"
     inkscape:export-filename="/var/www/sigeconfis/imagenes/locked.png"
     inkscape:export-xdpi="90"
     inkscape:export-ydpi="90" /><path
     d="M 173.09557,70.591913 V -59.984309 c 0.013,-17.97833 -7.34795,-34.45249 -19.13665,-46.211821 -11.75933,-11.7887 -28.23674,-19.14644 -46.21181,-19.13665 H 19.708725 c -17.9750697,-0.01 -34.452488,7.34795 -46.205294,19.13991 -11.791961,11.759331 -19.152963,28.233491 -19.143175,46.211821 V 70.595176 c -23.995043,11.322109 -40.632343,35.721744 -40.632343,64.082484 v 47.6279 c 0,39.12817 31.594233,70.85944 70.631038,70.85944 H 143.11645 c 38.99765,0 70.61146,-31.73127 70.61146,-70.85944 v -47.63117 c 0,-28.36074 -16.64383,-52.760368 -40.63234,-64.082477 z M 81.546365,197.03735 c 1.16811,6.72801 -3.98068,8.88802 -8.89128,8.88802 h -17.85761 c -4.90733,0 -10.07569,-2.16001 -8.89128,-8.88802 l 9.14252,-42.61942 c -7.45236,-3.32811 -12.65661,-10.787 -12.65661,-19.47598 0,-11.77891 9.55364,-21.32603 21.33255,-21.32603 11.77891,0 21.32928,9.54712 21.32928,21.32603 0,8.67919 -5.1912,16.13482 -12.63377,19.46293 l 9.1262,42.63247 z M 129.52993,63.814962 H -2.0740947 V -59.984309 c 0.01,-6.08522 2.40471997,-11.39063 6.38215,-15.40394 4.01005,-3.97742 9.3154497,-6.36909 15.4006697,-6.38215 h 88.038385 c 6.08196,0.01 11.38736,2.40147 15.40394,6.38215 3.97742,4.01005 6.36909,9.31872 6.37888,15.40394 V 63.814962 z"
     id="path3"
     style="fill:#fffffc;fill-opacity:1"
     inkscape:connector-curvature="0"
     inkscape:export-filename="/var/www/sigeconfis/imagenes/locked.png"
     inkscape:export-xdpi="90"
     inkscape:export-ydpi="90" /></svg>