<?xml version="1.0" encoding="UTF-8" standalone="no"?>
<svg
   xmlns:dc="http://purl.org/dc/elements/1.1/"
   xmlns:cc="http://creativecommons.org/ns#"
   xmlns:rdf="http://www.w3.org/1999/02/22-rdf-syntax-ns#"
   xmlns:svg="http://www.w3.org/2000/svg"
   xmlns="http://www.w3.org/2000/svg"
   xmlns:sodipodi="http://sodipodi.sourceforge.net/DTD/sodipodi-0.dtd"
   xmlns:inkscape="http://www.inkscape.org/namespaces/inkscape"
   height="700"
   id="svg2"
   version="1.1"
   width="700"
   inkscape:version="0.48.3.1 r9886"
   sodipodi:docname="archivos.svg">
  <metadata
     id="metadata9">
    <rdf:RDF>
      <cc:Work
         rdf:about="">
        <dc:format>image/svg+xml</dc:format>
        <dc:type
           rdf:resource="http://purl.org/dc/dcmitype/StillImage" />
        <dc:title></dc:title>
      </cc:Work>
    </rdf:RDF>
  </metadata>
  <sodipodi:namedview
     pagecolor="#ffffff"
     bordercolor="#666666"
     borderopacity="1"
     objecttolerance="10"
     gridtolerance="10"
     guidetolerance="10"
     inkscape:pageopacity="0"
     inkscape:pageshadow="2"
     inkscape:window-width="1440"
     inkscape:window-height="813"
     id="namedview7"
     showgrid="false"
     inkscape:zoom="1.1269531"
     inkscape:cx="256"
     inkscape:cy="196.67807"
     inkscape:window-x="0"
     inkscape:window-y="27"
     inkscape:window-maximized="1"
     inkscape:current-layer="layer1" />
  <defs
     id="defs4" />
  <path
     sodipodi:type="arc"
     style="fill:#630000;fill-opacity:1;fill-rule:evenodd;stroke:#630000;stroke-width:1px;stroke-linecap:butt;stroke-linejoin:miter;stroke-opacity:1"
     id="path2986"
     sodipodi:cx="-384"
     sodipodi:cy="176.81355"
     sodipodi:rx="147.52542"
     sodipodi:ry="142.1017"
     d="m -236.47458,176.81355 a 147.52542,142.1017 0 1 1 -295.05084,0 147.52542,142.1017 0 1 1 295.05084,0 z"
     transform="matrix(1.6887913,0,0,1.7532488,939.36519,133.84106)"
     inkscape:export-filename="/var/www/sigeconfis/imagenes/archivos.png"
     inkscape:export-xdpi="90"
     inkscape:export-ydpi="90" />
  <g
     id="layer1"
     transform="matrix(0.58984325,0,0,0.58984325,91.896759,-91.07964)">
    <g
       id="layer1-5"
       transform="translate(-573.14286,170.28574)" />
    <path
       d="m 526.69797,635.38413 -23.47656,8.51562 -93.98438,34.21875 -23.47656,8.55469 8.55469,23.47656 153.90625,422.89065 8.55468,23.4765 23.47657,-8.5546 93.98437,-34.1798 23.47656,-8.5546 -8.55468,-23.5156 -153.90625,-422.85161 -8.55469,-23.47656 z m -465.937503,21.13281 0,25 0,449.99996 0,25 25,0 100.000003,0 25,0 0,-25 0,-449.99996 0,-25 -25,0 -100.000003,0 -25,0 z m 162.500003,0 0,25 0,449.99996 0,25 25,0 100,0 25,0 0,-25 0,-449.99996 0,-25 -25,0 -100,0 -25,0 z m 301.32812,46.13281 74.84375,205.54688 -93.98437,34.21876 -74.80469,-205.54689 93.94531,-34.21875 z m -438.828123,16.36719 100.000003,0 0,218.74995 -100.000003,0 0,-218.74995 z m 162.500003,0 100,0 0,218.74995 -100,0 0,-218.74995 z m 342.69531,280.7422 c 12.74256,0.025 24.72431,7.91546 29.33594,20.58586 5.90287,16.2181 -2.49288,34.1363 -18.71094,40.0391 -16.21806,5.9029 -34.13619,-2.4538 -40.03906,-18.6718 -5.90289,-16.2182 2.45381,-34.1362 18.67187,-40.0392 3.5477,-1.2912 7.17428,-1.92084 10.74219,-1.91396 z m -455.19531,19.25776 c 17.2589,0 31.25,13.9911 31.25,31.25 0,17.259 -13.9911,31.25 -31.25,31.25 -17.2589,0 -31.25,-13.991 -31.25,-31.25 0,-17.2589 13.9911,-31.25 31.25,-31.25 z m 162.5,0 c 17.2589,0 31.25,13.9911 31.25,31.25 0,17.259 -13.9911,31.25 -31.25,31.25 -17.2589,0 -31.25,-13.991 -31.25,-31.25 0,-17.2589 13.9911,-31.25 31.25,-31.25 z"
       id="rect3028"
       style="font-size:medium;font-style:normal;font-variant:normal;font-weight:normal;font-stretch:normal;text-indent:0;text-align:start;text-decoration:none;line-height:normal;letter-spacing:normal;word-spacing:normal;text-transform:none;direction:ltr;block-progression:tb;writing-mode:lr-tb;text-anchor:start;baseline-shift:baseline;color:#000000;fill:#ffffe2;fill-opacity:1;fill-rule:nonzero;stroke:none;stroke-width:40;marker:none;visibility:visible;display:inline;overflow:visible;enable-background:accumulate;font-family:Sans;-inkscape-font-specification:Sans"
       inkscape:connector-curvature="0"
       inkscape:export-filename="/var/www/sigeconfis/imagenes/archivos.png"
       inkscape:export-xdpi="90"
       inkscape:export-ydpi="90" />
  </g>
</svg>
