<?xml version="1.0" encoding="UTF-8" standalone="no"?>
<svg
   xmlns:dc="http://purl.org/dc/elements/1.1/"
   xmlns:cc="http://creativecommons.org/ns#"
   xmlns:rdf="http://www.w3.org/1999/02/22-rdf-syntax-ns#"
   xmlns:svg="http://www.w3.org/2000/svg"
   xmlns="http://www.w3.org/2000/svg"
   xmlns:xlink="http://www.w3.org/1999/xlink"
   xmlns:sodipodi="http://sodipodi.sourceforge.net/DTD/sodipodi-0.dtd"
   xmlns:inkscape="http://www.inkscape.org/namespaces/inkscape"
   style="enable-background:new 0 0 499.996 500.004;"
   version="1.1"
   viewBox="0 0 499.996 500.004"
   xml:space="preserve"
   id="svg2"
   inkscape:version="0.48.3.1 r9886"
   width="100%"
   height="100%"
   sodipodi:docname="auditoria_cmc.svg"><metadata
     id="metadata66"><rdf:RDF><cc:Work
         rdf:about=""><dc:format>image/svg+xml</dc:format><dc:type
           rdf:resource="http://purl.org/dc/dcmitype/StillImage" /></cc:Work></rdf:RDF></metadata><defs
     id="defs64"><linearGradient
       y2="130.0158"
       y1="369.9881"
       x2="220.2246"
       x1="220.2246"
       id="SVGID_1_"
       gradientUnits="userSpaceOnUse"><stop
         id="stop17"
         style="stop-color:#FFFFFF"
         offset="0.6258" /><stop
         id="stop19"
         style="stop-color:#EBEBEB"
         offset="0.6258" /></linearGradient><linearGradient
       inkscape:collect="always"
       xlink:href="#SVGID_1_"
       id="linearGradient3066"
       gradientUnits="userSpaceOnUse"
       x1="220.2246"
       y1="369.9881"
       x2="220.2246"
       y2="130.0158" /></defs><sodipodi:namedview
     pagecolor="#ffffff"
     bordercolor="#666666"
     borderopacity="1"
     objecttolerance="10"
     gridtolerance="10"
     guidetolerance="10"
     inkscape:pageopacity="0"
     inkscape:pageshadow="2"
     inkscape:window-width="1440"
     inkscape:window-height="813"
     id="namedview62"
     showgrid="false"
     inkscape:zoom="0.47199622"
     inkscape:cx="-148.31027"
     inkscape:cy="250.002"
     inkscape:window-x="0"
     inkscape:window-y="27"
     inkscape:window-maximized="1"
     inkscape:current-layer="g5" /><g
     id="atm-money-machine"><g
       id="g5"><path
         d="M249.998,500.004C111.931,500.004,0,388.073,0,249.998C0,111.931,111.931,0,249.998,0    c138.063,0,249.998,111.931,249.998,249.998C499.996,388.073,388.061,500.004,249.998,500.004z"
         style="fill:#630000;fill-opacity:1"
         id="path7" /><g
         id="g10"><path
           inkscape:connector-curvature="0"
           id="path12"
           style="fill:#ffffff"
           d="m 353.745,226.596 h -37.534 v 124.871 h 37.534 c 8.077,0 14.679,-6.615 14.679,-14.692 V 241.28 c 0,-8.085 -6.602,-14.684 -14.679,-14.684 z" /><path
           inkscape:connector-curvature="0"
           id="path14"
           style="fill:#c8cacd"
           d="m 344.382,327.801 c 0,4.641 -2.137,8.436 -4.748,8.436 -2.611,0 -4.744,-3.795 -4.744,-8.436 V 251.87 c 0,-4.632 2.132,-8.436 4.744,-8.436 2.611,0 4.748,3.803 4.748,8.436 v 75.931 z" /></g><path
         inkscape:connector-curvature="0"
         id="path21"
         style="fill:url(#linearGradient3066)"
         d="M 293.194,130.016 H 278.062 162.375 147.251 c -8.615,0 -15.679,7.992 -15.679,17.778 V 352.22 c 0,9.769 7.064,17.769 15.679,17.769 h 145.943 c 8.62,0 15.684,-8 15.684,-17.769 v -0.752 -124.872 -78.803 c 0,-9.786 -7.064,-17.777 -15.684,-17.777 z" /><g
         id="g23"><path
           inkscape:connector-curvature="0"
           id="path25"
           style="fill:#b5b9bd"
           d="M 187.452,328.835 H 165.05 c -1.521,0 -2.769,1.239 -2.769,2.778 v 15.658 c 0,1.522 1.248,2.769 2.769,2.769 h 22.402 c 1.534,0 2.782,-1.248 2.782,-2.769 v -15.658 c -0.001,-1.539 -1.249,-2.778 -2.782,-2.778 z" /><path
           inkscape:connector-curvature="0"
           id="path27"
           style="fill:#b5b9bd"
           d="M 187.452,297.595 H 165.05 c -1.521,0 -2.769,1.248 -2.769,2.778 v 15.65 c 0,1.53 1.248,2.786 2.769,2.786 h 22.402 c 1.534,0 2.782,-1.256 2.782,-2.786 v -15.65 c -0.001,-1.53 -1.249,-2.778 -2.782,-2.778 z" /><path
           inkscape:connector-curvature="0"
           id="path29"
           style="fill:#b5b9bd"
           d="M 187.452,266.357 H 165.05 c -1.521,0 -2.769,1.248 -2.769,2.786 v 15.65 c 0,1.538 1.248,2.777 2.769,2.777 h 22.402 c 1.534,0 2.782,-1.239 2.782,-2.777 v -15.65 c -0.001,-1.539 -1.249,-2.786 -2.782,-2.786 z" /><path
           inkscape:connector-curvature="0"
           id="path31"
           style="fill:#b5b9bd"
           d="M 187.452,233.878 H 165.05 c -1.521,0 -2.769,1.256 -2.769,2.778 v 15.658 c 0,1.521 1.248,2.769 2.769,2.769 h 22.402 c 1.534,0 2.782,-1.248 2.782,-2.769 v -15.658 c -0.001,-1.521 -1.249,-2.778 -2.782,-2.778 z" /><path
           inkscape:connector-curvature="0"
           id="path33"
           style="fill:#b5b9bd"
           d="m 231.417,328.835 h -22.393 c -1.53,0 -2.773,1.239 -2.773,2.778 v 15.658 c 0,1.522 1.243,2.769 2.773,2.769 h 22.393 c 1.53,0 2.778,-1.248 2.778,-2.769 v -15.658 c 0,-1.539 -1.248,-2.778 -2.778,-2.778 z" /><path
           inkscape:connector-curvature="0"
           id="path35"
           style="fill:#b5b9bd"
           d="m 231.417,297.595 h -22.393 c -1.53,0 -2.773,1.248 -2.773,2.778 v 15.65 c 0,1.53 1.243,2.786 2.773,2.786 h 22.393 c 1.53,0 2.778,-1.256 2.778,-2.786 v -15.65 c 0,-1.53 -1.248,-2.778 -2.778,-2.778 z" /><path
           inkscape:connector-curvature="0"
           id="path37"
           style="fill:#b5b9bd"
           d="m 231.417,266.357 h -22.393 c -1.53,0 -2.773,1.248 -2.773,2.786 v 15.65 c 0,1.538 1.243,2.777 2.773,2.777 h 22.393 c 1.53,0 2.778,-1.239 2.778,-2.777 v -15.65 c 0,-1.539 -1.248,-2.786 -2.778,-2.786 z" /><path
           inkscape:connector-curvature="0"
           id="path39"
           style="fill:#b5b9bd"
           d="m 231.417,233.878 h -22.393 c -1.53,0 -2.773,1.256 -2.773,2.778 v 15.658 c 0,1.521 1.243,2.769 2.773,2.769 h 22.393 c 1.53,0 2.778,-1.248 2.778,-2.769 v -15.658 c 0,-1.521 -1.248,-2.778 -2.778,-2.778 z" /><path
           inkscape:connector-curvature="0"
           id="path41"
           style="fill:#b5b9bd"
           d="m 275.374,328.835 h -22.385 c -1.513,0 -2.774,1.239 -2.774,2.778 v 15.658 c 0,1.522 1.261,2.769 2.774,2.769 h 22.385 c 1.534,0 2.786,-1.248 2.786,-2.769 v -15.658 c 0,-1.539 -1.252,-2.778 -2.786,-2.778 z" /><path
           inkscape:connector-curvature="0"
           id="path43"
           style="fill:#b5b9bd"
           d="m 275.374,297.595 h -22.385 c -1.513,0 -2.774,1.248 -2.774,2.778 v 15.65 c 0,1.53 1.261,2.786 2.774,2.786 h 22.385 c 1.534,0 2.786,-1.256 2.786,-2.786 v -15.65 c 0,-1.53 -1.252,-2.778 -2.786,-2.778 z" /><path
           inkscape:connector-curvature="0"
           id="path45"
           style="fill:#b5b9bd"
           d="m 275.374,266.357 h -22.385 c -1.513,0 -2.774,1.248 -2.774,2.786 v 15.65 c 0,1.538 1.261,2.777 2.774,2.777 h 22.385 c 1.534,0 2.786,-1.239 2.786,-2.777 v -15.65 c 0,-1.539 -1.252,-2.786 -2.786,-2.786 z" /><path
           inkscape:connector-curvature="0"
           id="path47"
           style="fill:#b5b9bd"
           d="m 275.374,233.878 h -22.385 c -1.513,0 -2.774,1.256 -2.774,2.778 v 15.658 c 0,1.521 1.261,2.769 2.774,2.769 h 22.385 c 1.534,0 2.786,-1.248 2.786,-2.769 v -15.658 c 0,-1.521 -1.252,-2.778 -2.786,-2.778 z" /></g><path
         inkscape:connector-curvature="0"
         id="path49"
         style="fill:#59616a"
         d="m 279.156,196.563 c 0,2.479 -2.863,4.521 -6.354,4.521 H 167.64 c -3.491,0 -6.363,-2.034 -6.363,-4.521 v -44.837 c 0,-2.487 2.859,-4.521 6.363,-4.521 h 105.162 c 3.491,0 6.354,2.034 6.354,4.521 v 44.837 z" /><g
         id="g51"><path
           inkscape:connector-curvature="0"
           id="path53"
           style="fill:#5fd4af"
           d="m 239.823,175.656 c 0,4.06 -3.307,7.35 -7.359,7.35 -4.06,0 -7.35,-3.291 -7.35,-7.35 0,-4.051 3.291,-7.35 7.35,-7.35 4.051,0 7.359,3.299 7.359,7.35 z" /><path
           inkscape:connector-curvature="0"
           id="path55"
           style="fill:#5fd4af"
           d="m 264.289,175.656 c 0,4.06 -3.282,7.35 -7.338,7.35 -4.051,0 -7.35,-3.291 -7.35,-7.35 0,-4.051 3.299,-7.35 7.35,-7.35 4.056,0 7.338,3.299 7.338,7.35 z" /><path
           inkscape:connector-curvature="0"
           id="path57"
           style="fill:#5fd4af"
           d="m 215.323,175.656 c 0,4.06 -3.295,7.35 -7.35,7.35 -4.051,0 -7.337,-3.291 -7.337,-7.35 0,-4.051 3.286,-7.35 7.337,-7.35 4.055,0 7.35,3.299 7.35,7.35 z" /><path
           inkscape:connector-curvature="0"
           id="path59"
           style="fill:#5fd4af"
           d="m 190.84,175.656 c 0,4.06 -3.291,7.35 -7.342,7.35 -4.06,0 -7.35,-3.291 -7.35,-7.35 0,-4.051 3.29,-7.35 7.35,-7.35 4.052,0 7.342,3.299 7.342,7.35 z" /></g></g></g><g
     id="Layer_1" /></svg>